<?xml version="1.0" standalone="no"?>
<!DOCTYPE svg PUBLIC "-//W3C//DTD SVG 20010904//EN"
 "http://www.w3.org/TR/2001/REC-SVG-20010904/DTD/svg10.dtd">
<svg version="1.0" xmlns="http://www.w3.org/2000/svg"
 width="260.000000pt" height="260.000000pt" viewBox="0 0 260.000000 260.000000"
 preserveAspectRatio="xMidYMid meet">
<metadata>
Created by potrace 1.14, written by Peter Selinger 2001-2017
</metadata>
<g transform="translate(0.000000,260.000000) scale(0.100000,-0.100000)"
fill="#000000" stroke="none">
<path d="M160 1300 l0 -1140 1140 0 1140 0 0 1140 0 1140 -1140 0 -1140 0 0
-1140z m2200 0 l0 -1060 -1060 0 -1060 0 0 1060 0 1060 1060 0 1060 0 0 -1060z"/>
<path d="M1714 1759 c-104 -13 -192 -70 -237 -154 -33 -62 -31 -165 5 -227 37
-62 82 -97 208 -163 117 -61 156 -92 176 -141 19 -45 18 -73 -6 -111 -34 -56
-112 -81 -213 -69 -79 10 -86 18 -100 116 l-12 85 -52 3 -53 3 0 -129 0 -130
73 -18 c51 -13 108 -19 192 -19 107 0 127 3 182 26 124 52 185 133 187 248 1
122 -54 186 -235 275 -139 67 -189 113 -196 178 -8 86 56 142 162 142 87 -1
118 -18 127 -74 20 -120 13 -110 68 -110 l50 0 0 115 0 114 -52 16 c-29 8 -78
18 -108 21 -30 3 -66 6 -80 8 -14 1 -53 -1 -86 -5z"/>
<path d="M530 1624 l0 -125 47 3 47 3 13 72 c6 40 14 77 18 83 3 5 46 10 96
10 l89 0 0 -379 c0 -291 -3 -381 -12 -389 -7 -5 -35 -13 -61 -16 -47 -7 -48
-8 -45 -39 l3 -32 208 -3 207 -2 0 34 c0 34 -1 35 -52 43 l-53 8 -3 388 -2
387 84 0 c57 0 87 -4 93 -12 4 -7 12 -44 18 -83 l11 -70 47 -3 47 -3 0 125 0
126 -400 0 -400 0 0 -126z"/>
</g>
</svg>
